# Blender 3.2.2
# www.blender.org
mtllib Curved Cliff.mtl
o Cube
v 0.500000 0.000000 0.500000
v 0.000000 0.000000 0.500000
v 0.500000 0.000000 0.000000
v 0.000000 0.000000 0.000000
v 0.000000 -0.500000 0.500000
v -0.500000 -0.500000 0.500000
v -0.500000 -0.500000 0.000000
v -0.500000 -0.500000 -0.500000
v 0.000000 -0.500000 -0.500000
v 0.500000 -0.500000 -0.500000
v 0.500000 -0.500000 0.000000
v 0.000000 -0.500000 0.000000
vn -0.0000 1.0000 -0.0000
vn -0.0000 -0.0000 -1.0000
vn -1.0000 -0.0000 -0.0000
vt 0.625000 0.750000
vt 0.750000 0.750000
vt 0.625000 0.625000
vt 0.750000 0.625000
vt 0.750000 0.750000
vt 0.875000 0.750000
vt 0.875000 0.625000
vt 0.875000 0.500000
vt 0.750000 0.500000
vt 0.625000 0.500000
vt 0.625000 0.625000
vt 0.750000 0.625000
s 0
usemtl Material
f 3/3/1 4/4/1 2/2/1 1/1/1
f 12/12/1 7/7/1 6/6/1 5/5/1
f 10/10/1 9/9/1 12/12/1 11/11/1
f 9/9/1 8/8/1 7/7/1 12/12/1
f 4/4/2 3/3/2 11/11/2 12/12/2
f 2/2/3 4/4/3 12/12/3 5/5/3
