# Blender v3.2.2 OBJ File: ''
# www.blender.org
mtllib MonolithFlat.mtl
o Cube.001
v -0.025000 0.250000 -0.200000
v 0.000000 0.000000 -0.050000
v 0.000000 0.150000 -0.100000
v 0.025000 0.250000 -0.200000
v 0.050000 0.300000 -0.500000
v -0.050000 0.300000 -0.500000
v 0.100000 0.000000 -0.200000
v -0.100000 0.000000 -0.200000
v 0.500000 0.000000 0.000000
v 0.000000 0.000000 0.000000
v 0.000000 -0.000000 0.500000
v 0.500000 -0.000000 0.500000
v 0.500000 0.000000 -0.500000
v 0.150000 0.000000 -0.500000
v -0.150000 0.000000 -0.500000
v -0.500000 0.000000 -0.500000
v -0.500000 0.000000 0.000000
v -0.500000 -0.000000 0.500000
vn -0.9300 0.1162 0.3487
vn 0.9300 0.1162 0.3487
vn 0.0000 0.7071 0.7071
vn 0.0000 0.9864 0.1644
vn 0.9501 0.2850 0.1267
vn -0.9501 0.2850 0.1267
vn 0.0000 1.0000 0.0000
vn 0.4971 0.7601 0.4185
vn -0.6823 0.6935 0.2313
vn 0.0000 0.9864 0.1646
vn -0.4971 0.7601 0.4185
vn 0.6823 0.6935 0.2313
vn 0.5392 0.8374 0.0899
vn -0.5392 0.8374 0.0899
vn 0.3119 0.5309 -0.7879
vn -0.3119 0.5309 -0.7879
usemtl Default_OBJ
s off
f 1//1 2//1 3//1
f 4//2 3//2 2//2
f 4//3 1//3 3//3
f 5//4 6//4 1//4 4//4
f 5//5 4//5 7//5
f 1//6 6//6 8//6
s 1
f 9//7 10//7 11//7 12//7
f 7//8 4//9 2//10
f 8//11 2//10 1//12
f 13//7 14//13 7//8 2//10 10//7 9//7
f 15//14 16//7 17//7 10//7 2//10 8//11
f 15//14 8//11 6//15
f 7//8 14//13 5//16
f 11//7 10//7 17//7 18//7
