# Blender v3.2.2 OBJ File: ''
# www.blender.org
mtllib MonolithCliffSlant.mtl
o Cube.002
v -0.025000 -0.250000 -0.200000
v 0.000000 -0.500000 -0.050000
v 0.000000 -0.350000 -0.100000
v 0.025000 -0.250000 -0.200000
v 0.050000 -0.200000 -0.500000
v -0.050000 -0.200000 -0.500000
v 0.100000 -0.500000 -0.200000
v -0.100000 -0.500000 -0.200000
v 0.500000 0.000000 0.000000
v 0.000000 0.000000 0.000000
v 0.000000 -0.000000 0.500000
v 0.500000 -0.000000 0.500000
v 0.500000 -0.500000 -0.000000
v 0.000000 -0.500000 -0.000000
v 0.000000 -0.250000 0.500000
v -0.500000 -0.250000 0.500000
v -0.500000 -0.500000 -0.000000
v 0.500000 -0.500000 -0.500000
v 0.150000 -0.500000 -0.500000
v -0.150000 -0.500000 -0.500000
v -0.500000 -0.500000 -0.500000
vn -0.9300 0.1162 0.3487
vn 0.9300 0.1162 0.3487
vn 0.0000 0.7071 0.7071
vn 0.0000 0.9864 0.1644
vn 0.9501 0.2850 0.1267
vn -0.9501 0.2850 0.1267
vn 0.0000 0.7071 -0.7071
vn -0.5774 0.5774 -0.5774
vn -0.7071 0.7071 0.0000
vn 0.0000 1.0000 0.0000
vn -0.2128 0.8739 -0.4370
vn -0.7915 0.5466 -0.2733
vn 0.0000 0.8944 -0.4472
vn 0.0000 0.9732 -0.2298
vn 0.3441 0.9098 0.2320
vn -0.5387 -0.5955 0.5960
vn -0.0000 0.9740 0.2267
vn -0.3441 0.9098 0.2320
vn 0.5387 -0.5955 0.5960
vn 0.5392 0.8374 0.0899
vn -0.5392 0.8374 0.0899
vn -0.0862 -0.9860 -0.1426
vn 0.0862 -0.9860 -0.1426
usemtl Default_OBJ.001
s off
f 1//1 2//1 3//1
f 4//2 3//2 2//2
f 4//3 1//3 3//3
f 5//4 6//4 1//4 4//4
f 5//5 4//5 7//5
f 1//6 6//6 8//6
s 1
f 9//7 10//8 11//9 12//10
f 10//8 9//7 13//7 14//11
f 11//9 10//8 14//11 15//12
f 16//13 15//12 14//11 17//14
f 7//15 4//16 2//17
f 8//18 2//17 1//19
f 18//10 19//20 7//15 2//17 14//11 13//7
f 20//21 21//10 17//14 14//11 2//17 8//18
f 20//21 8//18 6//22
f 7//15 19//20 5//23
