# Blender v3.2.2 OBJ File: ''
# www.blender.org
mtllib MonolithCliffSlant.mtl
o Cube.001
v 0.500000 0.000000 0.000000
v 0.000000 0.000000 0.000000
v 0.000000 -0.000000 0.500000
v 0.500000 -0.000000 0.500000
v 0.500000 -0.500000 -0.000000
v 0.000000 -0.500000 -0.000000
v 0.500000 -0.500000 -0.500000
v -0.500000 -0.500000 -0.500000
v -0.500000 -0.500000 -0.000000
v 0.000000 -0.250000 0.500000
v -0.500000 -0.250000 0.500000
v 0.150000 -0.500000 -0.500000
v -0.150000 -0.500000 -0.500000
v 0.000000 -0.500000 -0.050000
v 0.100000 -0.500000 -0.200000
v -0.100000 -0.500000 -0.200000
v 0.050000 -0.200000 -0.500000
v -0.050000 -0.200000 -0.500000
v 0.000000 -0.350000 -0.100000
v 0.025000 -0.250000 -0.200000
v -0.025000 -0.250000 -0.200000
vn -0.9300 0.1162 0.3487
vn 0.9300 0.1162 0.3487
vn 0.0000 0.7071 0.7071
vn 0.0000 -0.9864 -0.1644
vn -0.9501 -0.2850 -0.1267
vn 0.9501 -0.2850 -0.1267
vn 0.0000 0.7071 -0.7071
vn -0.5774 0.5774 -0.5774
vn -0.7071 0.7071 0.0000
vn 0.0000 1.0000 0.0000
vn -0.2128 0.8739 -0.4370
vn -0.7915 0.5466 -0.2733
vn 0.0000 0.8944 -0.4472
vn -0.0000 0.9732 -0.2298
vn 0.3441 0.9098 0.2320
vn -0.5387 -0.5955 0.5959
vn 0.0000 0.9740 0.2267
vn -0.3441 0.9098 0.2320
vn 0.5387 -0.5955 0.5959
vn 0.5392 0.8374 0.0899
vn -0.5392 0.8374 0.0899
vn -0.0863 -0.9860 -0.1427
vn 0.0863 -0.9860 -0.1427
usemtl Default_OBJ
s off
f 21//1 14//1 19//1
f 20//2 19//2 14//2
f 20//3 21//3 19//3
f 17//4 20//4 21//4 18//4
f 17//5 15//5 20//5
f 21//6 16//6 18//6
s 1
f 1//7 2//8 3//9 4//10
f 2//8 1//7 5//7 6//11
f 3//9 2//8 6//11 10//12
f 11//13 10//12 6//11 9//14
f 15//15 20//16 14//17
f 16//18 14//17 21//19
f 7//10 12//20 15//15 14//17 6//11 5//7
f 13//21 8//10 9//14 6//11 14//17 16//18
f 13//21 16//18 18//22
f 15//15 12//20 17//23
